<?xml version="1.0" encoding="UTF-8"?>
<!DOCTYPE svg PUBLIC "-//W3C//DTD SVG 1.1//EN" "http://www.w3.org/Graphics/SVG/1.1/DTD/svg11.dtd">
<svg xmlns="http://www.w3.org/2000/svg" version="1.1" width="1024px" height="1024px" style="shape-rendering:geometricPrecision; text-rendering:geometricPrecision; image-rendering:optimizeQuality; fill-rule:evenodd; clip-rule:evenodd" xmlns:xlink="http://www.w3.org/1999/xlink">
<g><path style="opacity:0.982" fill="#f4f5f4" d="M 450.5,-0.5 C 489.833,-0.5 529.167,-0.5 568.5,-0.5C 586.484,2.21246 604.817,4.87913 623.5,7.5C 650.269,14.3399 676.602,22.3399 702.5,31.5C 704.709,32.063 706.209,33.3964 707,35.5C 707.308,34.6919 707.808,34.0253 708.5,33.5C 712.601,36.3403 717.101,38.3403 722,39.5C 723.221,40.2718 724.221,41.2718 725,42.5C 726.049,41.4829 727.216,41.3162 728.5,42C 744.217,49.7407 759.217,57.574 773.5,65.5C 773.119,67.9418 773.786,68.6085 775.5,67.5C 777.734,69.3219 780.234,70.6552 783,71.5C 791.642,77.5956 800.475,83.5956 809.5,89.5C 810.386,90.325 810.719,91.325 810.5,92.5C 811.978,92.238 813.311,92.5713 814.5,93.5C 824.186,101.105 833.686,109.105 843,117.5C 843.483,118.448 843.649,119.448 843.5,120.5C 845.199,120.34 846.866,120.506 848.5,121C 861.179,132.839 873.846,145.006 886.5,157.5C 887.819,160.966 890.153,163.3 893.5,164.5C 894.167,166.5 894.833,168.5 895.5,170.5C 896.822,170.33 897.989,170.663 899,171.5C 899.946,173.942 901.446,175.942 903.5,177.5C 904.452,179.045 904.785,180.712 904.5,182.5C 910.903,185.495 915.07,190.495 917,197.5C 917.414,197.043 917.914,196.709 918.5,196.5C 919.429,197.689 919.762,199.022 919.5,200.5C 920.675,200.281 921.675,200.614 922.5,201.5C 923.82,203.826 925.487,205.826 927.5,207.5C 934.341,217.62 940.674,228.12 946.5,239C 947.613,240.394 948.947,241.561 950.5,242.5C 950.291,243.086 949.957,243.586 949.5,244C 950.981,244.98 952.315,246.147 953.5,247.5C 953.291,248.086 952.957,248.586 952.5,249C 953.961,250.351 955.294,251.851 956.5,253.5C 956.291,254.086 955.957,254.586 955.5,255C 956.961,256.351 958.294,257.851 959.5,259.5C 959.291,260.086 958.957,260.586 958.5,261C 961.131,263.947 963.464,267.113 965.5,270.5C 964.5,272.591 965.167,274.257 967.5,275.5C 971.564,284.573 975.897,293.406 980.5,302C 981.847,306.116 983.013,310.283 984,314.5C 985.423,316.551 986.923,318.551 988.5,320.5C 988.167,321.167 987.833,321.833 987.5,322.5C 988.833,324.167 990.167,325.833 991.5,327.5C 991.291,328.086 990.957,328.586 990.5,329C 992.104,331.615 993.437,334.448 994.5,337.5C 994.392,338.442 994.059,339.275 993.5,340C 996.778,342.349 997.778,345.349 996.5,349C 998.371,351.498 999.704,354.331 1000.5,357.5C 1028.03,462.64 1027.03,566.973 997.5,670.5C 996.253,673.102 994.919,675.602 993.5,678C 994.059,678.725 994.392,679.558 994.5,680.5C 993.528,682.954 992.195,685.121 990.5,687C 990.957,687.414 991.291,687.914 991.5,688.5C 990.263,690.779 988.93,692.945 987.5,695C 988.022,695.561 988.355,696.228 988.5,697C 980.739,714.933 973.072,732.766 965.5,750.5C 964.5,750.5 963.5,750.5 962.5,750.5C 961.267,757.844 957.933,764.011 952.5,769C 952.957,769.414 953.291,769.914 953.5,770.5C 952.315,771.853 950.981,773.02 949.5,774C 949.957,774.414 950.291,774.914 950.5,775.5C 949.197,777.377 947.697,779.043 946,780.5C 943.829,784.645 941.829,788.978 940,793.5C 933.819,801.733 927.819,810.066 922,818.5C 918.503,822.713 914.836,826.713 911,830.5C 905.042,839.987 898.042,848.653 890,856.5C 888.562,857.9 887.729,859.567 887.5,861.5C 886.5,861.5 885.5,861.5 884.5,861.5C 884.5,862.5 884.5,863.5 884.5,864.5C 883.5,864.5 882.5,864.5 881.5,864.5C 876.907,871.594 871.074,877.594 864,882.5C 862.431,885.812 860.264,888.645 857.5,891C 849.414,898.756 840.748,905.756 831.5,912C 829.152,915.477 826.152,917.977 822.5,919.5C 822.5,920.5 822.5,921.5 822.5,922.5C 820.94,922.519 819.44,922.852 818,923.5C 802.653,933.787 787.486,944.287 772.5,955C 759.241,961.733 746.074,968.567 733,975.5C 720.832,979.42 709.165,984.42 698,990.5C 697.228,990.355 696.561,990.022 696,989.5C 686.137,994.054 675.97,998.054 665.5,1001.5C 631.413,1011.26 596.746,1018.26 561.5,1022.5C 560.006,1022.29 558.839,1021.62 558,1020.5C 557.047,1022.59 555.714,1022.93 554,1021.5C 550.397,1022.14 546.897,1022.8 543.5,1023.5C 521.167,1023.5 498.833,1023.5 476.5,1023.5C 465.134,1022.29 453.634,1020.96 442,1019.5C 415.765,1015.81 389.599,1010.64 363.5,1004C 363.833,1003.67 364.167,1003.33 364.5,1003C 357.746,1001.45 351.079,999.621 344.5,997.5C 328.78,990.983 312.947,984.649 297,978.5C 285.224,972.614 273.391,966.614 261.5,960.5C 257.5,956.669 252.833,953.836 247.5,952C 245.963,950.89 245.297,949.39 245.5,947.5C 243.073,947.477 240.74,946.977 238.5,946C 233.467,942.592 228.467,939.092 223.5,935.5C 222.264,934.754 220.93,934.421 219.5,934.5C 219.5,933.5 219.5,932.5 219.5,931.5C 218.022,931.762 216.689,931.429 215.5,930.5C 211.912,927.292 207.912,924.626 203.5,922.5C 202.614,921.675 202.281,920.675 202.5,919.5C 201.448,919.649 200.448,919.483 199.5,919C 199.833,918.667 200.167,918.333 200.5,918C 198.035,917.368 196.369,915.868 195.5,913.5C 190.228,908.979 184.561,904.979 178.5,901.5C 169.481,891.815 159.814,882.815 149.5,874.5C 148.731,872.263 147.564,870.263 146,868.5C 128.344,850.73 112.51,831.397 98.5,810.5C 97.0186,809.52 95.6853,808.353 94.5,807C 94.8333,806.667 95.1667,806.333 95.5,806C 92.7468,803.943 90.4135,801.443 88.5,798.5C 88.7093,797.914 89.0426,797.414 89.5,797C 88.0186,796.02 86.6853,794.853 85.5,793.5C 85.7093,792.914 86.0426,792.414 86.5,792C 83.3604,790.04 81.527,787.207 81,783.5C 72.6706,772.915 66.0039,761.249 61,748.5C 58.6101,744.664 56.1101,740.831 53.5,737C 53.8333,736.667 54.1667,736.333 54.5,736C 53.0394,734.649 51.706,733.149 50.5,731.5C 50.7093,730.914 51.0426,730.414 51.5,730C 48.4561,727.941 47.4561,725.275 48.5,722C 45.4262,718.687 43.2596,714.853 42,710.5C 41.3162,709.216 41.4829,708.049 42.5,707C 40.5682,705.436 39.2349,703.436 38.5,701C 34.6199,689.132 30.6199,677.299 26.5,665.5C 22.2464,647.217 17.5797,629.05 12.5,611C 13.2052,609.578 13.5385,608.245 13.5,607C 11.5692,602.968 10.2359,598.635 9.5,594C 9.54449,592.236 9.87782,590.569 10.5,589C 10,588.5 9.5,588 9,587.5C 4.62851,548.739 3.46184,509.573 5.5,470C 5.53946,465.74 6.20613,461.74 7.5,458C 6.86563,455.925 6.5323,453.759 6.5,451.5C 7.00069,446.319 8.33403,441.486 10.5,437C 9.86563,434.925 9.5323,432.759 9.5,430.5C 14.8809,394.503 23.5475,359.336 35.5,325C 37.3719,320.038 39.7053,315.372 42.5,311C 42.0426,310.586 41.7093,310.086 41.5,309.5C 42.706,307.851 44.0394,306.351 45.5,305C 44.9781,304.439 44.6448,303.772 44.5,303C 46.8757,298.698 49.209,294.365 51.5,290C 51.0426,289.586 50.7093,289.086 50.5,288.5C 51.6853,287.147 53.0186,285.98 54.5,285C 53.9781,284.439 53.6448,283.772 53.5,283C 58.78,274.443 63.28,265.609 67,256.5C 74.0116,246.436 80.5116,236.103 86.5,225.5C 87.354,224.478 88.354,223.645 89.5,223C 89.0426,222.586 88.7093,222.086 88.5,221.5C 89.6853,220.147 91.0186,218.98 92.5,218C 92.0411,216.057 93.0411,214.724 95.5,214C 95.0426,213.586 94.7093,213.086 94.5,212.5C 102.466,202.296 110.632,192.296 119,182.5C 120.009,180.975 120.509,179.308 120.5,177.5C 121.5,177.5 122.5,177.5 123.5,177.5C 123.281,176.325 123.614,175.325 124.5,174.5C 128.314,171.853 131.647,168.687 134.5,165C 135.448,164.517 136.448,164.351 137.5,164.5C 137.215,162.712 137.548,161.045 138.5,159.5C 147.608,150.305 156.941,141.305 166.5,132.5C 167.386,131.675 167.719,130.675 167.5,129.5C 168.978,129.762 170.311,129.429 171.5,128.5C 182.789,119.294 193.789,109.627 204.5,99.5C 210.265,96.1035 215.931,92.6035 221.5,89C 222.676,87.3257 224.01,85.8257 225.5,84.5C 238.108,76.929 250.774,69.429 263.5,62C 269.554,56.7244 276.387,52.8911 284,50.5C 285.169,49.9915 286.002,49.1581 286.5,48C 338.671,23.9815 393.337,7.81485 450.5,-0.5 Z M 741.5,106.5 C 741.953,107.458 742.619,108.292 743.5,109C 760.756,118.117 776.756,128.95 791.5,141.5C 793.071,142.309 794.738,142.643 796.5,142.5C 796.441,145.049 797.441,147.049 799.5,148.5C 804.716,152.025 809.716,155.692 814.5,159.5C 824.808,169.475 834.808,179.809 844.5,190.5C 846.051,192.545 848.051,194.045 850.5,195C 850.167,195.333 849.833,195.667 849.5,196C 852.54,198.699 855.873,201.032 859.5,203C 858.269,204.183 858.269,205.349 859.5,206.5C 864.542,211.225 868.875,216.558 872.5,222.5C 878.093,228.487 883.426,234.653 888.5,241C 888.043,241.414 887.709,241.914 887.5,242.5C 890.557,244.721 893.057,247.388 895,250.5C 895.483,251.448 895.649,252.448 895.5,253.5C 896.5,253.5 897.5,253.5 898.5,253.5C 898.141,255.766 898.808,257.599 900.5,259C 900.043,259.414 899.709,259.914 899.5,260.5C 900.981,261.48 902.315,262.647 903.5,264C 903.167,264.333 902.833,264.667 902.5,265C 906.1,269.733 909.433,274.733 912.5,280C 917.57,290.915 922.903,301.581 928.5,312C 929.56,313.928 930.893,315.595 932.5,317C 932.043,317.414 931.709,317.914 931.5,318.5C 932.706,320.149 934.039,321.649 935.5,323C 934.978,323.561 934.645,324.228 934.5,325C 935.56,326.928 936.893,328.595 938.5,330C 937.456,333.275 938.456,335.941 941.5,338C 940.978,338.561 940.645,339.228 940.5,340C 956.227,377.583 966.227,417.083 970.5,458.5C 977.325,521.774 971.659,584.107 953.5,645.5C 950.091,654.303 946.757,663.137 943.5,672C 943.645,672.772 943.978,673.439 944.5,674C 941.456,676.059 940.456,678.725 941.5,682C 940.056,683.707 938.723,685.54 937.5,687.5C 937.709,688.086 938.043,688.586 938.5,689C 936.893,690.405 935.56,692.072 934.5,694C 930.333,703.833 926.167,713.667 922,723.5C 917.316,732.026 912.316,740.359 907,748.5C 906.316,749.784 906.483,750.951 907.5,752C 906.552,752.483 905.552,752.649 904.5,752.5C 904.649,753.552 904.483,754.552 904,755.5C 895.096,767.968 886.429,780.635 878,793.5C 871.286,800.715 865.12,808.382 859.5,816.5C 853.331,823.169 846.831,829.502 840,835.5C 839.667,837.167 839.333,838.833 839,840.5C 838.692,839.692 838.192,839.025 837.5,838.5C 835.679,839.728 834.679,841.394 834.5,843.5C 833.448,843.351 832.448,843.517 831.5,844C 819.481,857.194 806.481,869.361 792.5,880.5C 778.719,889.986 765.053,899.486 751.5,909C 733.958,918.867 716.125,928.367 698,937.5C 693.93,939.269 689.763,940.769 685.5,942C 685.833,942.333 686.167,942.667 686.5,943C 680.984,945.039 675.318,946.539 669.5,947.5C 669.649,948.552 669.483,949.552 669,950.5C 665.182,949.742 661.682,950.742 658.5,953.5C 645.25,957.36 631.916,961.026 618.5,964.5C 617.353,964.818 616.519,965.484 616,966.5C 615.167,964 614,963.833 612.5,966C 606.505,967.503 600.505,967.669 594.5,966.5C 594.859,964.234 594.192,962.401 592.5,961C 593.131,959.094 593.464,957.094 593.5,955C 590.972,937.348 590.972,919.681 593.5,902C 593.481,898.582 593.147,895.249 592.5,892C 595.302,876.909 598.968,861.909 603.5,847C 606.948,836.435 611.948,826.768 618.5,818C 626.898,811.416 636.565,808.25 647.5,808.5C 672.503,812.584 697.503,815.584 722.5,817.5C 723.994,817.291 725.161,816.624 726,815.5C 727.299,816.98 728.966,817.646 731,817.5C 737.554,815.787 744.221,814.787 751,814.5C 762.764,812.246 773.93,808.413 784.5,803C 789.312,798.018 793.979,792.852 798.5,787.5C 798.291,786.914 797.957,786.414 797.5,786C 799.952,782.619 801.452,778.785 802,774.5C 803.098,760.534 802.264,746.701 799.5,733C 799.471,728.681 800.471,724.681 802.5,721C 816.73,714.718 821.564,703.885 817,688.5C 815.166,685.156 813.333,681.822 811.5,678.5C 814.392,674.611 818.058,671.444 822.5,669C 831.065,659.441 832.398,648.941 826.5,637.5C 826.931,636.707 827.265,635.873 827.5,635C 822.812,628.28 819.479,620.946 817.5,613C 817.727,606.524 820.727,602.024 826.5,599.5C 836.351,597.069 845.684,593.402 854.5,588.5C 867.555,575.485 869.555,560.819 860.5,544.5C 857.122,537.826 853.288,531.493 849,525.5C 847.933,524.809 846.766,524.309 845.5,524C 846.685,521.222 845.685,519.722 842.5,519.5C 842.762,518.022 842.429,516.689 841.5,515.5C 838.589,511.624 835.589,507.79 832.5,504C 832.957,503.586 833.291,503.086 833.5,502.5C 829.782,499.093 826.782,495.093 824.5,490.5C 822.949,488.455 820.949,486.955 818.5,486C 818.957,485.586 819.291,485.086 819.5,484.5C 812.78,474.67 806.28,464.67 800,454.5C 799.388,449.125 797.555,444.292 794.5,440C 795.833,435.333 795.833,430.667 794.5,426C 796.247,420.571 797.581,414.905 798.5,409C 802.437,384.007 802.437,359.007 798.5,334C 797.705,329.054 796.371,324.388 794.5,320C 795.081,319.107 795.415,318.107 795.5,317C 794.534,313.741 793.2,310.741 791.5,308C 792.081,307.107 792.415,306.107 792.5,305C 789.964,302.594 788.631,299.927 788.5,297C 789.778,293.349 788.778,290.349 785.5,288C 786.022,287.439 786.355,286.772 786.5,286C 783.817,282.793 782.151,279.126 781.5,275C 780.44,273.072 779.107,271.405 777.5,270C 777.957,269.586 778.291,269.086 778.5,268.5C 774.655,262.813 771.322,256.813 768.5,250.5C 766.911,249.022 765.244,247.522 763.5,246C 764.711,244.887 764.711,243.72 763.5,242.5C 761.587,239.557 759.253,237.057 756.5,235C 756.957,234.586 757.291,234.086 757.5,233.5C 754.694,229.526 751.36,226.026 747.5,223C 747.957,222.586 748.291,222.086 748.5,221.5C 741.946,213.71 734.946,206.377 727.5,199.5C 726.614,198.675 726.281,197.675 726.5,196.5C 724.567,196.271 722.9,195.438 721.5,194C 719.051,191.595 716.717,189.095 714.5,186.5C 710.549,184.19 706.883,181.523 703.5,178.5C 701.293,177.365 698.96,176.699 696.5,176.5C 696.719,175.325 696.386,174.325 695.5,173.5C 693.174,172.18 691.174,170.513 689.5,168.5C 639.811,137.58 585.478,120.246 526.5,116.5C 485.27,113.73 444.436,116.396 404,124.5C 402.08,125.088 400.413,126.088 399,127.5C 397.244,126.452 395.41,126.452 393.5,127.5C 373.822,133.77 354.322,141.436 335,150.5C 328.296,154.873 321.129,158.706 313.5,162C 305.839,167.95 297.839,173.45 289.5,178.5C 285.396,182.943 280.73,186.61 275.5,189.5C 266.843,197.444 258.177,205.444 249.5,213.5C 249.709,214.086 250.043,214.586 250.5,215C 249.207,215.49 247.873,215.657 246.5,215.5C 246.509,217.308 246.009,218.975 245,220.5C 238.554,227.951 232.054,235.284 225.5,242.5C 224.691,244.071 224.357,245.738 224.5,247.5C 222.857,247.48 221.524,248.147 220.5,249.5C 219.551,253.091 217.551,255.925 214.5,258C 214.833,258.333 215.167,258.667 215.5,259C 214.019,259.98 212.685,261.147 211.5,262.5C 211.709,263.086 212.043,263.586 212.5,264C 211.354,264.645 210.354,265.478 209.5,266.5C 198.41,284.329 189.077,303.162 181.5,323C 179.784,331.964 177.118,340.631 173.5,349C 173.585,350.107 173.919,351.107 174.5,352C 172.8,354.741 171.466,357.741 170.5,361C 170.585,362.107 170.919,363.107 171.5,364C 169.569,368.032 168.236,372.365 167.5,377C 167.544,378.764 167.878,380.431 168.5,382C 166.899,387.239 165.899,392.739 165.5,398.5C 164.743,406.831 164.076,415.164 163.5,423.5C 163.819,436.107 164.485,448.773 165.5,461.5C 165.935,465.612 166.935,469.445 168.5,473C 167.869,474.906 167.536,476.906 167.5,479C 168.916,487.897 171.25,496.063 174.5,503.5C 173.515,505.098 173.349,506.765 174,508.5C 179.822,523.482 185.656,538.482 191.5,553.5C 196.225,561.854 201.225,570.021 206.5,578C 206.043,578.414 205.709,578.914 205.5,579.5C 207.54,582.214 209.873,584.714 212.5,587C 212.043,587.414 211.709,587.914 211.5,588.5C 212.706,590.149 214.039,591.649 215.5,593C 215.043,593.414 214.709,593.914 214.5,594.5C 216.543,596.509 218.543,598.509 220.5,600.5C 237.083,623.966 253.083,647.299 268.5,670.5C 274.768,683.385 281.435,695.551 288.5,707C 288.043,707.414 287.709,707.914 287.5,708.5C 288.706,710.149 290.039,711.649 291.5,713C 290.456,716.275 291.456,718.941 294.5,721C 293.978,721.561 293.645,722.228 293.5,723C 294.742,725.901 296.075,728.734 297.5,731.5C 297.167,732.167 296.833,732.833 296.5,733.5C 305.555,756.639 306.888,780.305 300.5,804.5C 297.967,810.308 296.134,815.975 295,821.5C 294.355,822.646 293.522,823.646 292.5,824.5C 293.609,826.214 292.942,826.881 290.5,826.5C 290.33,827.822 290.663,828.989 291.5,830C 286.168,838.094 281.335,846.594 277,855.5C 271.337,863.112 265.67,870.779 260,878.5C 257.821,881.011 255.321,883.178 252.5,885C 252.957,885.414 253.291,885.914 253.5,886.5C 251.709,888.413 249.709,890.08 247.5,891.5C 233.616,882.283 220.949,871.616 209.5,859.5C 205.075,856.912 201.075,853.746 197.5,850C 190.945,843.567 184.611,836.9 178.5,830C 177.552,829.517 176.552,829.351 175.5,829.5C 174.238,826.874 172.904,824.207 171.5,821.5C 167.791,816.946 163.791,812.613 159.5,808.5C 151.073,796.642 142.406,784.975 133.5,773.5C 124.284,759.133 115.284,744.633 106.5,730C 106.957,729.586 107.291,729.086 107.5,728.5C 105.561,724.679 103.061,721.012 100,717.5C 99.879,715.273 99.0456,713.44 97.5,712C 97.9574,711.586 98.2907,711.086 98.5,710.5C 95.1271,705.387 92.1271,700.053 89.5,694.5C 81.9424,675.892 74.9424,657.059 68.5,638C 68.9574,637.586 69.2907,637.086 69.5,636.5C 68.2634,634.221 66.9301,632.055 65.5,630C 66.0814,629.107 66.4148,628.107 66.5,627C 64.1585,619.338 61.8252,611.672 59.5,604C 60.1159,602.6 60.4493,601.1 60.5,599.5C 59.6351,594.736 58.3018,590.236 56.5,586C 57.2855,583.092 57.6188,580.258 57.5,577.5C 57.1924,576.692 56.6924,576.025 56,575.5C 55.1671,568.502 54.3338,561.502 53.5,554.5C 53.2058,538.118 52.2058,521.785 50.5,505.5C 52.311,487.883 53.311,470.216 53.5,452.5C 54.8333,452.5 56.1667,452.5 57.5,452.5C 57.5895,449.275 56.9228,446.275 55.5,443.5C 56.1667,441.5 56.8333,439.5 57.5,437.5C 57.4302,436.228 57.0968,435.062 56.5,434C 58.1348,429.715 59.4681,425.215 60.5,420.5C 60.4302,419.228 60.0968,418.062 59.5,417C 61.398,413.989 62.7313,410.656 63.5,407C 63.4411,405.564 63.1078,404.231 62.5,403C 64.2004,400.259 65.5338,397.259 66.5,394C 66.4148,392.893 66.0814,391.893 65.5,391C 72.1603,374.826 78.1603,358.326 83.5,341.5C 88.072,330.417 93.072,319.583 98.5,309C 98.1667,308.667 97.8333,308.333 97.5,308C 98.9814,307.02 100.315,305.853 101.5,304.5C 101.291,303.914 100.957,303.414 100.5,303C 102.917,299.471 105.25,295.971 107.5,292.5C 107.291,291.914 106.957,291.414 106.5,291C 111.742,282.433 117.076,273.933 122.5,265.5C 124.901,261.272 126.901,256.939 128.5,252.5C 129.5,252.5 130.5,252.5 131.5,252.5C 131.955,249.538 133.121,246.871 135,244.5C 138.136,239.88 141.636,235.547 145.5,231.5C 145.291,230.914 144.957,230.414 144.5,230C 147.776,227.084 150.776,223.918 153.5,220.5C 157.807,213.848 162.807,207.848 168.5,202.5C 169.386,201.675 169.719,200.675 169.5,199.5C 170.5,199.5 171.5,199.5 172.5,199.5C 172.421,198.07 172.754,196.736 173.5,195.5C 185.816,182.695 198.149,170.695 210.5,159.5C 213.332,158.504 214.665,156.504 214.5,153.5C 217.462,153.045 220.129,151.879 222.5,150C 240.744,133.307 260.411,119.807 281.5,109.5C 281.329,106.203 281.995,105.869 283.5,108.5C 293.092,101.068 303.592,95.4012 315,91.5C 321.978,87.834 328.978,84.1674 336,80.5C 360.779,71.1822 385.946,63.1822 411.5,56.5C 412.647,56.1822 413.481,55.5156 414,54.5C 414.308,55.3081 414.808,55.9747 415.5,56.5C 416.807,55.1845 418.307,54.1845 420,53.5C 423.42,53.8869 426.753,53.8869 430,53.5C 441.43,50.975 452.763,48.3084 464,45.5C 465.009,46.6582 466.342,47.3248 468,47.5C 476.074,45.8976 484.241,45.0643 492.5,45C 539.276,43.5475 585.61,48.7142 631.5,60.5C 636.783,63.3865 642.449,65.2198 648.5,66C 647.112,66.8893 647.278,67.3893 649,67.5C 649.945,67.0946 650.612,66.428 651,65.5C 651.388,66.428 652.055,67.0946 653,67.5C 663.744,70.9314 674.244,74.9314 684.5,79.5C 686.105,80.4303 687.605,80.4303 689,79.5C 689.779,80.7282 690.779,81.7282 692,82.5C 696.597,84.4033 701.097,86.4033 705.5,88.5C 707.005,85.8694 707.671,86.2027 707.5,89.5C 719.108,94.8016 730.442,100.468 741.5,106.5 Z M 472.5,190.5 C 485.837,190.333 499.171,190.5 512.5,191C 526.491,193.273 539.158,198.44 550.5,206.5C 552.102,205.45 552.935,206.117 553,208.5C 557.337,213.25 562.17,217.417 567.5,221C 573.156,221.724 578.489,220.724 583.5,218C 589.047,217.492 594.547,216.658 600,215.5C 609.01,217.671 617.843,220.337 626.5,223.5C 627.192,222.975 627.692,222.308 628,221.5C 628.49,222.793 628.657,224.127 628.5,225.5C 630.401,225.433 632.234,225.767 634,226.5C 653.813,235.361 670.146,248.361 683,265.5C 683.903,266.701 685.069,267.535 686.5,268C 686.167,268.333 685.833,268.667 685.5,269C 686.448,269.483 687.448,269.649 688.5,269.5C 688.238,270.978 688.571,272.311 689.5,273.5C 691.94,278.166 694.94,282.332 698.5,286C 697.456,289.275 698.456,291.941 701.5,294C 701.043,294.414 700.709,294.914 700.5,295.5C 702.257,298.014 703.757,300.681 705,303.5C 708.298,315.796 710.465,328.296 711.5,341C 710.235,363.557 704.069,383.724 693,401.5C 691.351,402.648 689.851,403.981 688.5,405.5C 688.709,406.086 689.043,406.586 689.5,407C 683.219,411.648 677.552,416.981 672.5,423C 667.009,426.337 661.675,429.837 656.5,433.5C 642.406,439.534 627.74,443.867 612.5,446.5C 610.58,447.669 608.58,448.669 606.5,449.5C 602.989,455.596 599.656,461.762 596.5,468C 593.64,470.768 591.307,473.934 589.5,477.5C 584.507,481.453 579.507,485.453 574.5,489.5C 566.167,493.167 557.833,496.833 549.5,500.5C 540.223,501.899 530.89,502.732 521.5,503C 521.833,503.333 522.167,503.667 522.5,504C 518.309,504.23 514.642,505.73 511.5,508.5C 508.117,511.886 504.451,514.886 500.5,517.5C 476.354,542.388 453.354,567.055 431.5,591.5C 428.833,592.833 426.167,594.167 423.5,595.5C 418.183,593.679 413.683,590.679 410,586.5C 409.264,581.134 409.431,575.8 410.5,570.5C 414.212,561.942 418.545,553.775 423.5,546C 423.043,545.586 422.709,545.086 422.5,544.5C 423.689,543.571 425.022,543.238 426.5,543.5C 426.67,542.178 426.337,541.011 425.5,540C 427.25,538.246 427.917,536.079 427.5,533.5C 415.953,535.805 404.286,537.471 392.5,538.5C 391.758,539.287 390.925,539.953 390,540.5C 383.229,540.515 376.396,540.182 369.5,539.5C 355.674,535.456 344.34,527.79 335.5,516.5C 327.252,513.268 318.585,510.935 309.5,509.5C 305.928,506.805 301.928,505.138 297.5,504.5C 288.462,499.91 279.795,494.91 271.5,489.5C 262.393,480.829 256.059,470.329 252.5,458C 251.538,453.115 250.371,448.281 249,443.5C 248.746,436.487 248.746,429.487 249,422.5C 241.261,408.782 236.427,394.115 234.5,378.5C 235.733,354.212 244.067,332.878 259.5,314.5C 263.802,311.7 267.968,308.7 272,305.5C 276.123,303.742 280.123,301.742 284,299.5C 285.7,296.961 287.2,294.295 288.5,291.5C 290.587,282.235 294.587,273.902 300.5,266.5C 300.291,265.914 299.957,265.414 299.5,265C 302.999,261.251 306.499,257.418 310,253.5C 312.581,248.77 316.081,244.77 320.5,241.5C 331.848,232.991 343.848,225.491 356.5,219C 376.926,212.605 397.093,213.105 417,220.5C 418.365,220.156 419.532,219.489 420.5,218.5C 422.599,220.534 424.932,220.868 427.5,219.5C 428.881,217.365 429.881,215.032 430.5,212.5C 437.225,207.445 444.225,202.779 451.5,198.5C 458.543,195.668 465.543,193.001 472.5,190.5 Z"/></g>
</svg>
